# xmcd
#
# Track frame offsets:
#	150
#	19889
#	40926
#	53858
#	77463
#	98687
#	114479
#	134416
#	153868
#	173230
#	192402
#	211542
#
# Disc length: 3191 seconds
#
# Revision: 0
# Processed by: cddbd v1.4PL0 Copyright (c) Steve Scherf et al.
# Submitted via: EasyCDDAExtractor 4.6.0.1
#
DISCID=920c750c
DTITLE=Elvis Costello with Burt Bacharrach - Painted from Memory
DYEAR=1998
DGENRE=
TTITLE0=In The Darkest Place
TTITLE1=Toledo
TTITLE2=I Still Have That Other Girl
TTITLE3=This House Is Empty Now
TTITLE4=Tears At The Birthday Party
TTITLE5=Such Unlikely Lovers
TTITLE6=My Thief
TTITLE7=The Long Division
TTITLE8=Painted From Memory
TTITLE9=The Sweetest Punch
TTITLE10=What's Her Name Today
TTITLE11=God Give Me Strength
EXTD=
EXTT0=
EXTT1=
EXTT2=
EXTT3=
EXTT4=
EXTT5=
EXTT6=
EXTT7=
EXTT8=
EXTT9=
EXTT10=
EXTT11=
PLAYORDER=
